<?xml version="1.0" standalone="no"?><!DOCTYPE svg PUBLIC "-//W3C//DTD SVG 1.1//EN" "http://www.w3.org/Graphics/SVG/1.1/DTD/svg11.dtd"><svg t="1740126188976" class="icon" viewBox="0 0 1024 1024" version="1.1" xmlns="http://www.w3.org/2000/svg" p-id="21625" xmlns:xlink="http://www.w3.org/1999/xlink" width="200" height="200"><path d="M512 0a512 512 0 1 1 0 1024A512 512 0 0 1 512 0zM336.018286 310.418286l-171.446857 60.635428 63.853714 35.547429-0.146286 0.365714c-53.028571 132.169143 0.292571 285.476571 131.803429 358.4a314.441143 314.441143 0 0 0 315.318857-6.582857l-97.792-54.198857A216.868571 216.868571 0 0 1 406.820571 687.542857C320.073143 639.268571 282.550857 540.745143 310.857143 452.388571l56.32 31.305143-31.158857-173.348571z m11.483428-44.544l97.572572 54.125714a217.6 217.6 0 0 1 172.178285 16.603429c86.747429 48.274286 124.342857 146.797714 95.963429 235.154285l-56.246857-31.305143 31.012571 173.494858 57.051429-20.187429 114.395428-40.521143-63.926857-35.547428c53.394286-132.242286 0-285.769143-131.584-358.985143a314.148571 314.148571 0 0 0-316.416 7.168z" fill="#23BF9A" p-id="21626"></path></svg>